<?xml version="1.0" encoding="UTF-8"?>
<svg version="1.1" xmlns="http://www.w3.org/2000/svg" width="330" height="320">
<path d="M0 0 C108.9 0 217.8 0 330 0 C330 105.6 330 211.2 330 320 C221.1 320 112.2 320 0 320 C0 214.4 0 108.8 0 0 Z " fill="#E7DFDE" transform="translate(0,0)"/>
<path d="M0 0 C108.9 0 217.8 0 330 0 C330 105.6 330 211.2 330 320 C221.1 320 112.2 320 0 320 C0 214.4 0 108.8 0 0 Z M90 18 C90 24.6 90 31.2 90 38 C83.07 38 76.14 38 69 38 C69 45.26 69 52.52 69 60 C62.73 60 56.46 60 50 60 C50 113.79 50 167.58 50 223 C56.6 223 63.2 223 70 223 C70 229.93 70 236.86 70 244 C76.93 244 83.86 244 91 244 C91 250.6 91 257.2 91 264 C144.79 264 198.58 264 254 264 C254 257.4 254 250.8 254 244 C260.93 244 267.86 244 275 244 C275 237.4 275 230.8 275 224 C281.93 224 288.86 224 296 224 C296 169.55 296 115.1 296 59 C289.07 59 282.14 59 275 59 C275 52.4 275 45.8 275 39 C268.4 39 261.8 39 255 39 C255 32.07 255 25.14 255 18 C200.55 18 146.1 18 90 18 Z " fill="#43611A" transform="translate(0,0)"/>
<path d="M0 0 C54.45 0 108.9 0 165 0 C165 6.6 165 13.2 165 20 C164.67 20 164.34 20 164 20 C164 13.73 164 7.46 164 1 C110.21 1 56.42 1 1 1 C1 7.93 1 14.86 1 22 C-5.6 22 -12.2 22 -19 22 C-19 82.06 -19 142.12 -19 204 C-12.73 204 -6.46 204 0 204 C0 211.26 0 218.52 0 226 C-6.6 226 -13.2 226 -20 226 C-20 219.07 -20 212.14 -20 205 C-26.6 205 -33.2 205 -40 205 C-40 151.21 -40 97.42 -40 42 C-33.73 42 -27.46 42 -21 42 C-21 34.74 -21 27.48 -21 20 C-14.07 20 -7.14 20 0 20 C0 13.4 0 6.8 0 0 Z " fill="#BAB4A8" transform="translate(90,18)"/>
<path d="M0 0 C53.79 0 107.58 0 163 0 C163 6.6 163 13.2 163 20 C109.21 20 55.42 20 0 20 C0 13.4 0 6.8 0 0 Z " fill="#BBB3A8" transform="translate(91,244)"/>
<path d="M0 0 C6.6 0 13.2 0 20 0 C20 53.46 20 106.92 20 162 C13.4 162 6.8 162 0 162 C0 108.54 0 55.08 0 0 Z " fill="#FDFDFB" transform="translate(275,60)"/>
<path d="M0 0 C53.46 0 106.92 0 162 0 C162 6.6 162 13.2 162 20 C108.54 20 55.08 20 0 20 C0 13.4 0 6.8 0 0 Z " fill="#FDFDFA" transform="translate(91,19)"/>
<path d="M0 0 C13.53 0 27.06 0 41 0 C41 13.53 41 27.06 41 41 C27.47 41 13.94 41 0 41 C0 27.47 0 13.94 0 0 Z " fill="#2F2725" transform="translate(152,121)"/>
<path d="M0 0 C54.45 0 108.9 0 165 0 C165 6.6 165 13.2 165 20 C164.67 20 164.34 20 164 20 C164 13.73 164 7.46 164 1 C110.21 1 56.42 1 1 1 C1 7.93 1 14.86 1 22 C-5.6 22 -12.2 22 -19 22 C-19 82.06 -19 142.12 -19 204 C-12.73 204 -6.46 204 0 204 C0 211.26 0 218.52 0 226 C-6.6 226 -13.2 226 -20 226 C-20 158.35 -20 90.7 -20 21 C-13.4 21 -6.8 21 0 21 C0 14.07 0 7.14 0 0 Z " fill="#D1D5BC" transform="translate(90,18)"/>
<path d="M0 0 C6.93 0 13.86 0 21 0 C21 54.45 21 108.9 21 165 C14.07 165 7.14 165 0 165 C0 171.6 0 178.2 0 185 C-6.6 185 -13.2 185 -20 185 C-20 178.07 -20 171.14 -20 164 C-6.8 164 6.4 164 20 164 C20 110.21 20 56.42 20 1 C13.4 1 6.8 1 0 1 C0 0.67 0 0.34 0 0 Z " fill="#B1B29C" transform="translate(275,59)"/>
<path d="M0 0 C13.53 0 27.06 0 41 0 C41 13.53 41 27.06 41 41 C27.47 41 13.94 41 0 41 C0 27.47 0 13.94 0 0 Z M1 1 C1 7.27 1 13.54 1 20 C7.27 20.33 13.54 20.66 20 21 C20.33 27.27 20.66 33.54 21 40 C27.27 40 33.54 40 40 40 C40 27.13 40 14.26 40 1 C27.13 1 14.26 1 1 1 Z " fill="#564C4A" transform="translate(152,121)"/>
<path d="M0 0 C6.6 0 13.2 0 20 0 C20 6.6 20 13.2 20 20 C13.4 20 6.8 20 0 20 C0 13.4 0 6.8 0 0 Z " fill="#B7B1A4" transform="translate(70,224)"/>
<path d="M0 0 C6.27 0 12.54 0 19 0 C19 6.27 19 12.54 19 19 C12.73 19 6.46 19 0 19 C0 12.73 0 6.46 0 0 Z " fill="#FEFDFB" transform="translate(71,40)"/>
<path d="M0 0 C6.27 0 12.54 0 19 0 C19 6.27 19 12.54 19 19 C12.73 19 6.46 19 0 19 C0 12.73 0 6.46 0 0 Z " fill="#FEFDFC" transform="translate(255,40)"/>
</svg>
