<?xml version="1.0" encoding="UTF-8"?>
<svg version="1.1" xmlns="http://www.w3.org/2000/svg" width="324" height="310">
<path d="M0 0 C106.92 0 213.84 0 324 0 C324 102.3 324 204.6 324 310 C217.08 310 110.16 310 0 310 C0 207.7 0 105.4 0 0 Z " fill="#E7DFDD" transform="translate(0,0)"/>
<path d="M0 0 C106.92 0 213.84 0 324 0 C324 102.3 324 204.6 324 310 C217.08 310 110.16 310 0 310 C0 207.7 0 105.4 0 0 Z M90 13 C90 19.6 90 26.2 90 33 C83.4 33 76.8 33 70 33 C70 40.26 70 47.52 70 55 C63.4 55 56.8 55 50 55 C50 109.12 50 163.24 50 219 C56.93 219 63.86 219 71 219 C71 225.6 71 232.2 71 239 C77.6 239 84.2 239 91 239 C91 245.93 91 252.86 91 260 C145.12 260 199.24 260 255 260 C255 253.07 255 246.14 255 239 C261.6 239 268.2 239 275 239 C275 232.4 275 225.8 275 219 C282.26 219 289.52 219 297 219 C297.02312328 197.65159903 297.04098144 176.30320107 297.05181217 154.95479012 C297.05697415 145.04293517 297.06401499 135.13108815 297.07543945 125.21923828 C297.08538928 116.58268601 297.09185414 107.94613948 297.09408849 99.30958164 C297.09539509 94.73424437 297.09847775 90.15892349 297.10573006 85.58359146 C297.11249497 81.28107221 297.11461599 76.97857616 297.11310768 72.67605209 C297.1133838 71.09335962 297.11538614 69.51066641 297.11920547 67.92797852 C297.12415006 65.77415116 297.12299544 63.62041248 297.12025452 61.46658325 C297.12117631 60.25903444 297.1220981 59.05148563 297.12304783 57.80734444 C297.19312894 55.04657547 297.19312894 55.04657547 296 53 C289.73 53 283.46 53 277 53 C277 46.4 277 39.8 277 33 C270.07 33 263.14 33 256 33 C256 26.4 256 19.8 256 13 C201.22 13 146.44 13 90 13 Z " fill="#426019" transform="translate(0,0)"/>
<path d="M0 0 C54.78 0 109.56 0 166 0 C166 6.6 166 13.2 166 20 C172.93 20 179.86 20 187 20 C187 26.6 187 33.2 187 40 C193.27 40 199.54 40 206 40 C207.42787183 42.85574366 207.12269238 45.27297711 207.12025452 48.46658325 C207.12153615 49.47370041 207.12153615 49.47370041 207.12284368 50.50116336 C207.12449688 52.76138175 207.11897972 55.02152668 207.11352539 57.28173828 C207.11324346 58.89777627 207.11340137 60.51381438 207.1139679 62.12985229 C207.11425564 66.52629901 207.10836269 70.92271863 207.10139394 75.31915903 C207.0951565 79.9102709 207.09455629 84.50138333 207.09336853 89.09249878 C207.09025637 97.79059976 207.08204452 106.48868821 207.07201904 115.18678367 C207.06085434 125.0874864 207.05534655 134.98818972 207.05032361 144.88889718 C207.03986182 165.25927197 207.02206393 185.62963476 207 206 C199.74 206 192.48 206 185 206 C185 205.67 185 205.34 185 205 C191.6 205 198.2 205 205 205 C205 151.21 205 97.42 205 42 C198.73 42 192.46 42 186 42 C186 35.07 186 28.14 186 21 C179.07 21 172.14 21 165 21 C165 14.4 165 7.8 165 1 C110.88 1 56.76 1 1 1 C1 7.6 1 14.2 1 21 C-5.6 21 -12.2 21 -19 21 C-19 81.72 -19 142.44 -19 205 C-12.73 205 -6.46 205 0 205 C0 191.8 0 178.6 0 165 C13.86 165 27.72 165 42 165 C42 178.53 42 192.06 42 206 C28.8 206.33 15.6 206.66 2 207 C1.67 213.27 1.34 219.54 1 226 C-5.6 226 -12.2 226 -19 226 C-19 219.4 -19 212.8 -19 206 C-25.93 206 -32.86 206 -40 206 C-40 151.88 -40 97.76 -40 42 C-33.4 42 -26.8 42 -20 42 C-20 34.74 -20 27.48 -20 20 C-13.4 20 -6.8 20 0 20 C0 13.4 0 6.8 0 0 Z " fill="#B5B3A2" transform="translate(90,13)"/>
<path d="M0 0 C54.12 0 108.24 0 164 0 C164 6.93 164 13.86 164 21 C109.88 21 55.76 21 0 21 C0 14.07 0 7.14 0 0 Z " fill="#B9B2A7" transform="translate(91,239)"/>
<path d="M0 0 C53.46 0 106.92 0 162 0 C162 6.27 162 12.54 162 19 C108.54 19 55.08 19 0 19 C0 12.73 0 6.46 0 0 Z " fill="#FEFEFC" transform="translate(92,15)"/>
<path d="M0 0 C6.27 0 12.54 0 19 0 C19 53.46 19 106.92 19 162 C12.73 162 6.46 162 0 162 C0 108.54 0 55.08 0 0 Z " fill="#FDFDFC" transform="translate(276,55)"/>
<path d="M0 0 C1.7297444 0.00025116 3.45949379 0.00581496 5.18920898 0.01586914 C5.99418823 0.01687622 6.79916748 0.0178833 7.62854004 0.0189209 C10.64747534 0.02416925 13.66639041 0.0381304 16.68530273 0.05102539 C23.42967773 0.07165039 30.17405273 0.09227539 37.12280273 0.11352539 C37.12280273 13.97352539 37.12280273 27.83352539 37.12280273 42.11352539 C23.26280273 42.11352539 9.40280273 42.11352539 -4.87719727 42.11352539 C-4.89782227 35.36915039 -4.91844727 28.62477539 -4.93969727 21.67602539 C-4.94880127 19.54464111 -4.95790527 17.41325684 -4.96728516 15.21728516 C-4.97020426 13.53816796 -4.97275283 11.85905006 -4.97485352 10.17993164 C-4.97996948 9.29978394 -4.98508545 8.41963623 -4.99035645 7.51281738 C-4.99066622 5.3793866 -4.93963794 3.24604225 -4.87719727 1.11352539 C-3.87719727 0.11352539 -3.87719727 0.11352539 0 0 Z " fill="#2F2625" transform="translate(156.877197265625,114.886474609375)"/>
<path d="M0 0 C13.53 0 27.06 0 41 0 C41 13.86 41 27.72 41 42 C27.47 42 13.94 42 0 42 C0 28.14 0 14.28 0 0 Z " fill="#322928" transform="translate(214,177)"/>
<path d="M0 0 C13.53 0 27.06 0 41 0 C41 13.86 41 27.72 41 42 C27.47 42 13.94 42 0 42 C0 28.14 0 14.28 0 0 Z " fill="#2F2625" transform="translate(91,54)"/>
<path d="M0 0 C13.53 0 27.06 0 41 0 C41 13.53 41 27.06 41 41 C27.47 41 13.94 41 0 41 C0 27.47 0 13.94 0 0 Z " fill="#2E2524" transform="translate(91,178)"/>
<path d="M0 0 C13.2 0 26.4 0 40 0 C40 13.2 40 26.4 40 40 C26.8 40 13.6 40 0 40 C0 26.8 0 13.6 0 0 Z " fill="#2F2625" transform="translate(215,55)"/>
<path d="M0 0 C1.7297444 0.00025116 3.45949379 0.00581496 5.18920898 0.01586914 C5.99418823 0.01687622 6.79916748 0.0178833 7.62854004 0.0189209 C10.64747534 0.02416925 13.66639041 0.0381304 16.68530273 0.05102539 C23.42967773 0.07165039 30.17405273 0.09227539 37.12280273 0.11352539 C37.12280273 13.97352539 37.12280273 27.83352539 37.12280273 42.11352539 C36.79280273 42.11352539 36.46280273 42.11352539 36.12280273 42.11352539 C36.12280273 28.91352539 36.12280273 15.71352539 36.12280273 2.11352539 C22.92280273 2.11352539 9.72280273 2.11352539 -3.87719727 2.11352539 C-3.87719727 8.71352539 -3.87719727 15.31352539 -3.87719727 22.11352539 C2.72280273 22.11352539 9.32280273 22.11352539 16.12280273 22.11352539 C16.12280273 28.71352539 16.12280273 35.31352539 16.12280273 42.11352539 C9.19280273 42.11352539 2.26280273 42.11352539 -4.87719727 42.11352539 C-4.90010366 36.29275728 -4.92003152 30.47214439 -4.93212891 24.65136719 C-4.93716994 22.66959098 -4.94400265 20.6878185 -4.95263672 18.70605469 C-4.96471241 15.86400431 -4.97042772 13.02200292 -4.97485352 10.17993164 C-4.9800148 9.28826797 -4.98517609 8.39660431 -4.99049377 7.47792053 C-4.99068903 5.35611938 -4.93929757 3.23441759 -4.87719727 1.11352539 C-3.87719727 0.11352539 -3.87719727 0.11352539 0 0 Z " fill="#675D5B" transform="translate(156.877197265625,114.886474609375)"/>
<path d="M0 0 C13.53 0 27.06 0 41 0 C41 13.53 41 27.06 41 41 C27.47 41 13.94 41 0 41 C0 27.47 0 13.94 0 0 Z M1 1 C1 7.27 1 13.54 1 20 C7.6 20 14.2 20 21 20 C21 26.6 21 33.2 21 40 C27.27 40 33.54 40 40 40 C40 27.13 40 14.26 40 1 C27.13 1 14.26 1 1 1 Z " fill="#564C49" transform="translate(91,178)"/>
<path d="M0 0 C0.33 0 0.66 0 1 0 C1 13.86 1 27.72 1 42 C14.53 42 28.06 42 42 42 C42 28.47 42 14.94 42 1 C42.33 1 42.66 1 43 1 C43 14.53 43 28.06 43 42 C49.27 42 55.54 42 62 42 C62 48.6 62 55.2 62 62 C55.4 62 48.8 62 42 62 C42 55.73 42 49.46 42 43 C28.14 43 14.28 43 0 43 C0 28.81 0 14.62 0 0 Z " fill="#BEB7AE" transform="translate(213,177)"/>
<path d="M0 0 C13.53 0 27.06 0 41 0 C41 0.33 41 0.66 41 1 C27.8 1 14.6 1 1 1 C1 7.6 1 14.2 1 21 C7.6 21 14.2 21 21 21 C21 27.6 21 34.2 21 41 C27.6 41 34.2 41 41 41 C41 41.33 41 41.66 41 42 C27.47 42 13.94 42 0 42 C0 28.14 0 14.28 0 0 Z " fill="#5E5554" transform="translate(214,177)"/>
<path d="M0 0 C13.53 0 27.06 0 41 0 C41 0.33 41 0.66 41 1 C27.8 1 14.6 1 1 1 C1 7.6 1 14.2 1 21 C7.6 21 14.2 21 21 21 C21 27.6 21 34.2 21 41 C27.6 41 34.2 41 41 41 C41 41.33 41 41.66 41 42 C27.47 42 13.94 42 0 42 C0 28.14 0 14.28 0 0 Z " fill="#5E5452" transform="translate(91,54)"/>
<path d="M0 0 C6.6 0 13.2 0 20 0 C20 6.6 20 13.2 20 20 C13.4 20 6.8 20 0 20 C0 13.4 0 6.8 0 0 Z " fill="#524846" transform="translate(215,75)"/>
<path d="M0 0 C6.6 0 13.2 0 20 0 C20 6.6 20 13.2 20 20 C15.606875 20.0309375 15.606875 20.0309375 11.125 20.0625 C9.74272217 20.07615601 9.74272217 20.07615601 8.33251953 20.09008789 C7.24366455 20.09383423 7.24366455 20.09383423 6.1328125 20.09765625 C5.01737061 20.10551147 5.01737061 20.10551147 3.87939453 20.11352539 C2 20 2 20 0 19 C0 12.73 0 6.46 0 0 Z " fill="#FDFCFB" transform="translate(255,35)"/>
<path d="M0 0 C6.6 0 13.2 0 20 0 C20.020625 2.743125 20.04125 5.48625 20.0625 8.3125 C20.071604 9.17270752 20.08070801 10.03291504 20.09008789 10.91918945 C20.09258545 11.60198975 20.09508301 12.28479004 20.09765625 12.98828125 C20.10551147 14.03302612 20.10551147 14.03302612 20.11352539 15.09887695 C20 17 20 17 19 20 C12.73 20 6.46 20 0 20 C0 13.4 0 6.8 0 0 Z " fill="#FDFDFB" transform="translate(71,35)"/>
<path d="M0 0 C6.93 0 13.86 0 21 0 C21 0.33 21 0.66 21 1 C14.73 1 8.46 1 2 1 C2.36841545 7.20823523 2.36841545 7.20823523 2.74829102 13.41577148 C2.79139404 14.18477783 2.83449707 14.95378418 2.87890625 15.74609375 C2.9260376 16.53685303 2.97316895 17.3276123 3.02172852 18.14233398 C3 20 3 20 2 21 C0.43827255 21.08685603 -1.12729344 21.10702219 -2.69140625 21.09765625 C-3.63564453 21.09443359 -4.57988281 21.09121094 -5.55273438 21.08789062 C-6.54595703 21.07951172 -7.53917969 21.07113281 -8.5625 21.0625 C-9.55958984 21.05798828 -10.55667969 21.05347656 -11.58398438 21.04882812 C-14.05604849 21.03700007 -16.52799518 21.02051849 -19 21 C-18.96447021 21.60062256 -18.92894043 22.20124512 -18.89233398 22.82006836 C-18.73531319 25.52559686 -18.58630203 28.23150757 -18.4375 30.9375 C-18.38142578 31.88302734 -18.32535156 32.82855469 -18.26757812 33.80273438 C-18.21923828 34.70185547 -18.17089844 35.60097656 -18.12109375 36.52734375 C-18.0739624 37.35999756 -18.02683105 38.19265137 -17.97827148 39.05053711 C-18 41 -18 41 -19 42 C-21.11360317 42.09688731 -23.2305067 42.12186842 -25.34632874 42.12025452 C-26.01688575 42.12110894 -26.68744276 42.12196337 -27.37831968 42.12284368 C-29.64164398 42.12450037 -31.90489534 42.11897407 -34.16821289 42.11352539 C-35.78410338 42.11324353 -37.39999399 42.11340122 -39.0158844 42.1139679 C-43.4165224 42.11425593 -47.81713339 42.10835829 -52.21776509 42.10139394 C-56.8115521 42.09516134 -61.40533966 42.09455668 -65.99913025 42.09336853 C-74.70434771 42.09025494 -83.40955268 42.08204117 -92.11476463 42.07201904 C-102.02269918 42.06085877 -111.93063431 42.05534767 -121.83857358 42.05032361 C-142.2257227 42.03985858 -162.61286057 42.0222586 -183 42 C-183 41.67 -183 41.34 -183 41 C-129.21 41 -75.42 41 -20 41 C-20 34.07 -20 27.14 -20 20 C-13.4 20 -6.8 20 0 20 C0 13.4 0 6.8 0 0 Z " fill="#4D5F2B" transform="translate(275,219)"/>
<path d="M0 0 C1.33278992 0.00303635 1.33278992 0.00303635 2.69250488 0.00613403 C3.5987561 0.00517731 4.50500732 0.00422058 5.4387207 0.00323486 C7.35876535 0.002553 9.27881229 0.00440771 11.19885254 0.00857544 C14.14861192 0.01392361 17.09821902 0.00863066 20.04797363 0.00222778 C21.90865105 0.00288856 23.76932838 0.00416972 25.63000488 0.00613403 C26.51853149 0.0041098 27.40705811 0.00208557 28.32250977 0 C34.546305 0.02399665 34.546305 0.02399665 35.66125488 1.13894653 C35.74999021 4.24124797 35.77651175 7.32182012 35.75891113 10.42410278 C35.75790405 11.24874023 35.75689697 12.07337769 35.75585938 12.92300415 C35.7506108 16.01583234 35.73664966 19.10864077 35.72375488 22.20144653 C35.70312988 29.11082153 35.68250488 36.02019653 35.66125488 43.13894653 C21.47125488 43.13894653 7.28125488 43.13894653 -7.33874512 43.13894653 C-7.35937012 36.22957153 -7.37999512 29.32019653 -7.40124512 22.20144653 C-7.41034912 20.01785522 -7.41945312 17.83426392 -7.42883301 15.58450317 C-7.4317521 13.86437034 -7.43430067 12.14423681 -7.43640137 10.42410278 C-7.44151733 9.52236328 -7.4466333 8.62062378 -7.4519043 7.69155884 C-7.45221394 5.50702909 -7.40120382 3.32258324 -7.33874512 1.13894653 C-5.41617337 -0.78362522 -2.55789404 0.00986229 0 0 Z M-5.33874512 1.13894653 C-5.33874512 14.33894653 -5.33874512 27.53894653 -5.33874512 41.13894653 C7.86125488 41.13894653 21.06125488 41.13894653 34.66125488 41.13894653 C34.66125488 27.93894653 34.66125488 14.73894653 34.66125488 1.13894653 C21.46125488 1.13894653 8.26125488 1.13894653 -5.33874512 1.13894653 Z " fill="#A89F9E" transform="translate(220.3387451171875,53.861053466796875)"/>
<path d="M0 0 C13.2 0 26.4 0 40 0 C40 13.2 40 26.4 40 40 C39.67 40 39.34 40 39 40 C38.970271 38.92516357 38.970271 38.92516357 38.93994141 37.82861328 C38.84490481 34.5936937 38.73513981 31.35943906 38.625 28.125 C38.5940625 26.99707031 38.563125 25.86914062 38.53125 24.70703125 C38.47324219 23.09248047 38.47324219 23.09248047 38.4140625 21.4453125 C38.3826416 20.45031738 38.3512207 19.45532227 38.31884766 18.43017578 C38.22752917 15.82145483 38.22752917 15.82145483 36 14 C36 10.04 36 6.08 36 2 C24.12 1.67 12.24 1.34 0 1 C0 0.67 0 0.34 0 0 Z " fill="#423A38" transform="translate(215,178)"/>
<path d="M0 0 C6.93 0 13.86 0 21 0 C21 0.33 21 0.66 21 1 C14.73 1 8.46 1 2 1 C2.36841545 7.20823523 2.36841545 7.20823523 2.74829102 13.41577148 C2.79139404 14.18477783 2.83449707 14.95378418 2.87890625 15.74609375 C2.9260376 16.53685303 2.97316895 17.3276123 3.02172852 18.14233398 C3 20 3 20 2 21 C0.36527118 21.08700342 -1.27314055 21.10701063 -2.91015625 21.09765625 C-3.89951172 21.09443359 -4.88886719 21.09121094 -5.90820312 21.08789062 C-6.94912109 21.07951172 -7.99003906 21.07113281 -9.0625 21.0625 C-10.10728516 21.05798828 -11.15207031 21.05347656 -12.22851562 21.04882812 C-14.8190666 21.03699913 -17.40950559 21.02051689 -20 21 C-20 20.67 -20 20.34 -20 20 C-13.4 20 -6.8 20 0 20 C0 13.4 0 6.8 0 0 Z " fill="#687C47" transform="translate(275,219)"/>
<path d="M0 0 C0.33 0 0.66 0 1 0 C1.17065921 5.63330183 1.33080915 11.26678153 1.48217773 16.90063477 C1.5347897 18.80793849 1.59002957 20.71517196 1.64819336 22.62231445 C2.03799753 35.47907301 1.88997447 48.16636399 1 61 C0.67 61 0.34 61 0 61 C0 54.73 0 48.46 0 42 C-5.94 42.33 -11.88 42.66 -18 43 C-18 42.34 -18 41.68 -18 41 C-12.06 41 -6.12 41 0 41 C0 27.47 0 13.94 0 0 Z " fill="#C2B9B4" transform="translate(90,178)"/>
<path d="M0 0 C1.32 0 2.64 0 4 0 C4 1.32 4 2.64 4 4 C1.36 4 -1.28 4 -4 4 C-3.01 3.67 -2.02 3.34 -1 3 C-0.67 2.01 -0.34 1.02 0 0 Z " fill="#3B3231" transform="translate(230,194)"/>
<path d="M0 0 C0.66 0 1.32 0 2 0 C2 1.98 2 3.96 2 6 C1.01 6 0.02 6 -1 6 C-1.042721 4.33388095 -1.04063832 2.66617115 -1 1 C-0.67 0.67 -0.34 0.34 0 0 Z " fill="#B4ADA2" transform="translate(68,160)"/>
</svg>
