<?xml version="1.0" encoding="UTF-8"?>
<svg version="1.1" xmlns="http://www.w3.org/2000/svg" width="324" height="324">
<path d="M0 0 C106.92 0 213.84 0 324 0 C324 106.92 324 213.84 324 324 C217.08 324 110.16 324 0 324 C0 217.08 0 110.16 0 0 Z " fill="#43611A" transform="translate(0,0)"/>
<path d="M0 0 C54.78 0 109.56 0 166 0 C166 6.6 166 13.2 166 20 C172.6 20 179.2 20 186 20 C186 26.93 186 33.86 186 41 C192.6 41 199.2 41 206 41 C206 95.45 206 149.9 206 206 C192.8 206 179.6 206 166 206 C166 192.47 166 178.94 166 165 C152.14 165 138.28 165 124 165 C124 178.86 124 192.72 124 207 C137.2 207 150.4 207 164 207 C164 213.27 164 219.54 164 226 C110.21 226 56.42 226 1 226 C1 219.4 1 212.8 1 206 C14.53 206 28.06 206 42 206 C42 192.14 42 178.28 42 164 C28.14 164 14.28 164 0 164 C0 177.86 0 191.72 0 206 C-13.2 206 -26.4 206 -40 206 C-40 151.88 -40 97.76 -40 42 C-33.4 42 -26.8 42 -20 42 C-20 34.74 -20 27.48 -20 20 C-13.4 20 -6.8 20 0 20 C0 13.4 0 6.8 0 0 Z " fill="#E5DDDB" transform="translate(88,21)"/>
<path d="M0 0 C13.86 0 27.72 0 42 0 C42 13.86 42 27.72 42 42 C28.47 42 14.94 42 1 42 C1 48.6 1 55.2 1 62 C54.79 62 108.58 62 164 62 C164 55.73 164 49.46 164 43 C150.8 43 137.6 43 124 43 C124 29.14 124 15.28 124 1 C137.86 1 151.72 1 166 1 C166 14.53 166 28.06 166 42 C172.27 42 178.54 42 185 42 C185 48.6 185 55.2 185 62 C178.4 62 171.8 62 165 62 C165 68.93 165 75.86 165 83 C110.55 83 56.1 83 0 83 C0 76.4 0 69.8 0 63 C-6.6 63 -13.2 63 -20 63 C-20 56.07 -20 49.14 -20 42 C-13.4 42 -6.8 42 0 42 C0 28.14 0 14.28 0 0 Z " fill="#BCB4AB" transform="translate(88,185)"/>
<path d="M0 0 C6.6 0 13.2 0 20 0 C20 54.12 20 108.24 20 164 C13.4 164 6.8 164 0 164 C0 109.88 0 55.76 0 0 Z " fill="#B9B3A7" transform="translate(48,63)"/>
<path d="M0 0 C6.6 0 13.2 0 20 0 C20 53.79 20 107.58 20 163 C13.4 163 6.8 163 0 163 C0 109.21 0 55.42 0 0 Z " fill="#FEFDFB" transform="translate(273,63)"/>
<path d="M0 0 C53.46 0 106.92 0 162 0 C162 6.27 162 12.54 162 19 C108.54 19 55.08 19 0 19 C0 12.73 0 6.46 0 0 Z " fill="#FDFDFB" transform="translate(90,23)"/>
<path d="M0 0 C13.53 0 27.06 0 41 0 C41 13.86 41 27.72 41 42 C27.47 42 13.94 42 0 42 C0 28.14 0 14.28 0 0 Z " fill="#312827" transform="translate(212,62)"/>
<path d="M0 0 C13.53 0 27.06 0 41 0 C41 13.53 41 27.06 41 41 C27.47 41 13.94 41 0 41 C0 27.47 0 13.94 0 0 Z " fill="#2F2625" transform="translate(212,186)"/>
<path d="M0 0 C13.53 0 27.06 0 41 0 C41 13.53 41 27.06 41 41 C27.47 41 13.94 41 0 41 C0 27.47 0 13.94 0 0 Z " fill="#322927" transform="translate(89,186)"/>
<path d="M0 0 C13.53 0 27.06 0 41 0 C41 13.53 41 27.06 41 41 C27.47 41 13.94 41 0 41 C0 27.47 0 13.94 0 0 Z " fill="#2F2625" transform="translate(212,124)"/>
<path d="M0 0 C13.53 0 27.06 0 41 0 C41 13.53 41 27.06 41 41 C27.47 41 13.94 41 0 41 C0 27.47 0 13.94 0 0 Z " fill="#2F2624" transform="translate(89,124)"/>
<path d="M0 0 C13.53 0 27.06 0 41 0 C41 13.2 41 26.4 41 40 C27.47 40 13.94 40 0 40 C0 26.8 0 13.6 0 0 Z " fill="#2F2726" transform="translate(89,63)"/>
<path d="M0 0 C13.86 0 27.72 0 42 0 C42 0.33 42 0.66 42 1 C28.47 1 14.94 1 1 1 C1.10828125 7.25710937 1.10828125 7.25710937 1.21875 13.640625 C1.2764018 17.02819831 1.33371053 20.41577705 1.39079285 23.80335999 C1.45056826 27.34532221 1.51090662 30.88727251 1.57275391 34.42919922 C1.6326231 37.85922582 1.69075283 41.28927837 1.74781799 44.71935272 C1.77991888 46.62413959 1.8136904 48.52889809 1.84753418 50.43365479 C2.0203134 60.96015065 2 71.46708518 2 82 C55.46 82 108.92 82 164 82 C164 75.73 164 69.46 164 63 C164.33 63 164.66 63 165 63 C165 69.6 165 76.2 165 83 C110.55 83 56.1 83 0 83 C0 76.4 0 69.8 0 63 C-6.6 63 -13.2 63 -20 63 C-20 56.07 -20 49.14 -20 42 C-13.4 42 -6.8 42 0 42 C0 28.14 0 14.28 0 0 Z " fill="#A7A492" transform="translate(88,185)"/>
<path d="M0 0 C13.53 0 27.06 0 41 0 C41 13.86 41 27.72 41 42 C27.47 42 13.94 42 0 42 C0 28.14 0 14.28 0 0 Z M1 1 C1 7.6 1 14.2 1 21 C7.6 21 14.2 21 21 21 C21 27.6 21 34.2 21 41 C27.27 41 33.54 41 40 41 C40 27.8 40 14.6 40 1 C27.13 1 14.26 1 1 1 Z " fill="#5F5553" transform="translate(212,62)"/>
<path d="M0 0 C13.53 0 27.06 0 41 0 C41 13.53 41 27.06 41 41 C27.47 41 13.94 41 0 41 C0 27.47 0 13.94 0 0 Z M1 1 C1 7.27 1 13.54 1 20 C7.6 20 14.2 20 21 20 C21 26.6 21 33.2 21 40 C27.27 40 33.54 40 40 40 C40 27.13 40 14.26 40 1 C27.13 1 14.26 1 1 1 Z " fill="#564C4A" transform="translate(212,186)"/>
<path d="M0 0 C13.53 0 27.06 0 41 0 C41 13.53 41 27.06 41 41 C27.47 41 13.94 41 0 41 C0 27.47 0 13.94 0 0 Z M1 1 C1 7.27 1 13.54 1 20 C7.6 20 14.2 20 21 20 C21 26.6 21 33.2 21 40 C27.27 40 33.54 40 40 40 C40 27.13 40 14.26 40 1 C27.13 1 14.26 1 1 1 Z " fill="#564C4A" transform="translate(89,186)"/>
<path d="M0 0 C13.53 0 27.06 0 41 0 C41 13.53 41 27.06 41 41 C40.67 41 40.34 41 40 41 C40 27.8 40 14.6 40 1 C27.13 1 14.26 1 1 1 C1 1.66 1 2.32 1 3 C2.65 3 4.3 3 6 3 C5.75 5.375 5.75 5.375 5 8 C3.02 8.99 3.02 8.99 1 10 C1 13.63 1 17.26 1 21 C7.27 21 13.54 21 20 21 C20 27.6 20 34.2 20 41 C13.4 41 6.8 41 0 41 C0 27.47 0 13.94 0 0 Z " fill="#594F4C" transform="translate(212,124)"/>
<path d="M0 0 C13.53 0 27.06 0 41 0 C41 13.53 41 27.06 41 41 C40.67 41 40.34 41 40 41 C40 27.8 40 14.6 40 1 C27.13 1 14.26 1 1 1 C1 7.6 1 14.2 1 21 C7.27 21 13.54 21 20 21 C20 27.6 20 34.2 20 41 C13.4 41 6.8 41 0 41 C0 27.47 0 13.94 0 0 Z " fill="#584E4C" transform="translate(89,124)"/>
<path d="M0 0 C0.33 0 0.66 0 1 0 C1 6.6 1 13.2 1 20 C7.6 20 14.2 20 21 20 C21 26.6 21 33.2 21 40 C14.07 40 7.14 40 0 40 C0 26.8 0 13.6 0 0 Z " fill="#554A48" transform="translate(89,63)"/>
<path d="M0 0 C6.27 0 12.54 0 19 0 C19.16262297 19.67737878 18.55335329 39.33241117 18 59 C17.67 59 17.34 59 17 59 C17 46.13 17 33.26 17 20 C11.39 20 5.78 20 0 20 C0 13.4 0 6.8 0 0 Z " fill="#FAF8F7" transform="translate(70,43)"/>
<path d="M0 0 C6.27 0 12.54 0 19 0 C19 6.6 19 13.2 19 20 C14.854375 20.0309375 14.854375 20.0309375 10.625 20.0625 C9.32103271 20.07615601 9.32103271 20.07615601 7.99072266 20.09008789 C2.22222222 20.11111111 2.22222222 20.11111111 0 19 C0 12.73 0 6.46 0 0 Z " fill="#FDFCFA" transform="translate(253,43)"/>
<path d="M0 0 C0.33 0 0.66 0 1 0 C1 6.93 1 13.86 1 21 C-5.6 21 -12.2 21 -19 21 C-18.67 20.34 -18.34 19.68 -18 19 C-9.585 18.505 -9.585 18.505 -1 18 C-0.67 12.06 -0.34 6.12 0 0 Z " fill="#576936" transform="translate(67,42)"/>
<path d="M0 0 C0.33 0.66 0.66 1.32 1 2 C2.65 2 4.3 2 6 2 C5.75 4.375 5.75 4.375 5 7 C3.02 7.99 3.02 7.99 1 9 C1 12.63 1 16.26 1 20 C0.67 20 0.34 20 0 20 C0 13.4 0 6.8 0 0 Z " fill="#423A38" transform="translate(212,125)"/>
<path d="M0 0 C0.33 0 0.66 0 1 0 C1 3.63 1 7.26 1 11 C-0.98 11 -2.96 11 -5 11 C-4.0409375 10.2265625 -4.0409375 10.2265625 -3.0625 9.4375 C-0.44208319 6.34064377 -0.30610183 3.97932377 0 0 Z " fill="#4B6424" transform="translate(87,30)"/>
</svg>
