<?xml version="1.0" encoding="UTF-8"?>
<svg version="1.1" xmlns="http://www.w3.org/2000/svg" width="344" height="302">
<path d="M0 0 C113.52 0 227.04 0 344 0 C344 99.66 344 199.32 344 302 C230.48 302 116.96 302 0 302 C0 202.34 0 102.68 0 0 Z " fill="#E7DFDD" transform="translate(0,0)"/>
<path d="M0 0 C113.52 0 227.04 0 344 0 C344 99.66 344 199.32 344 302 C230.48 302 116.96 302 0 302 C0 202.34 0 102.68 0 0 Z M100 14 C100 20.6 100 27.2 100 34 C90.0625 33.9375 90.0625 33.9375 86.92602539 33.90991211 C86.11641357 33.90741455 85.30680176 33.90491699 84.47265625 33.90234375 C83.64000244 33.89710693 82.80734863 33.89187012 81.94946289 33.88647461 C79.99483202 33.78356708 79.99483202 33.78356708 79 35 C78.91330568 36.4887186 78.89296506 37.981445 78.90234375 39.47265625 C78.90484131 40.28226807 78.90733887 41.09187988 78.90991211 41.92602539 C78.91901611 42.96106201 78.92812012 43.99609863 78.9375 45.0625 C78.958125 48.341875 78.97875 51.62125 79 55 C72.4 55 65.8 55 59 55 C59 109.45 59 163.9 59 220 C65.6 220 72.2 220 79 220 C79 226.6 79 233.2 79 240 C85.93 240 92.86 240 100 240 C100 246.6 100 253.2 100 260 C154.12 260 208.24 260 264 260 C264 253.4 264 246.8 264 240 C270.93 240 277.86 240 285 240 C285 233.4 285 226.8 285 220 C291.93 220 298.86 220 306 220 C306 165.55 306 111.1 306 55 C299.07 55 292.14 55 285 55 C285 48.07 285 41.14 285 34 C278.4 34 271.8 34 265 34 C265 27.4 265 20.8 265 14 C210.55 14 156.1 14 100 14 Z " fill="#43611A" transform="translate(0,0)"/>
<path d="M0 0 C0.33 0 0.66 0 1 0 C1 61.05 1 122.1 1 185 C7.6 185 14.2 185 21 185 C21 191.6 21 198.2 21 205 C14.07 205 7.14 205 0 205 C0 198.4 0 191.8 0 185 C-6.6 185 -13.2 185 -20 185 C-20 130.55 -20 76.1 -20 20 C-13.4 20 -6.8 20 0 20 C0 13.4 0 6.8 0 0 Z " fill="#BBB4A9" transform="translate(79,35)"/>
<path d="M0 0 C54.12 0 108.24 0 164 0 C164 6.6 164 13.2 164 20 C109.88 20 55.76 20 0 20 C0 13.4 0 6.8 0 0 Z " fill="#BAB3A8" transform="translate(100,240)"/>
<path d="M0 0 C53.79 0 107.58 0 163 0 C163 6.6 163 13.2 163 20 C109.21 20 55.42 20 0 20 C0 13.4 0 6.8 0 0 Z " fill="#FCFCFA" transform="translate(101,15)"/>
<path d="M0 0 C6.27 0 12.54 0 19 0 C19 53.46 19 106.92 19 162 C12.73 162 6.46 162 0 162 C0 108.54 0 55.08 0 0 Z " fill="#FDFDFB" transform="translate(285,56)"/>
<path d="M0 0 C13.86 0 27.72 0 42 0 C42.020625 6.744375 42.04125 13.48875 42.0625 20.4375 C42.071604 22.56888428 42.08070801 24.70026855 42.09008789 26.89624023 C42.093007 28.57535743 42.09555557 30.25447533 42.09765625 31.93359375 C42.10277222 32.81374146 42.10788818 33.69388916 42.11315918 34.60070801 C42.11346896 36.73413879 42.06244067 38.86748314 42 41 C41 42 41 42 37.12280273 42.11352539 C35.39305834 42.11327423 33.66330895 42.10771043 31.93359375 42.09765625 C31.1286145 42.09664917 30.32363525 42.09564209 29.4942627 42.09460449 C26.47532739 42.08935614 23.45641233 42.075395 20.4375 42.0625 C10.3209375 42.0315625 10.3209375 42.0315625 0 42 C0 28.14 0 14.28 0 0 Z " fill="#2F2625" transform="translate(100,178)"/>
<path d="M0 0 C13.86 0 27.72 0 42 0 C42.020625 6.744375 42.04125 13.48875 42.0625 20.4375 C42.071604 22.56888428 42.08070801 24.70026855 42.09008789 26.89624023 C42.093007 28.57535743 42.09555557 30.25447533 42.09765625 31.93359375 C42.10277222 32.81374146 42.10788818 33.69388916 42.11315918 34.60070801 C42.11346896 36.73413879 42.06244067 38.86748314 42 41 C41 42 41 42 37.12280273 42.11352539 C35.39305834 42.11327423 33.66330895 42.10771043 31.93359375 42.09765625 C31.1286145 42.09664917 30.32363525 42.09564209 29.4942627 42.09460449 C26.47532739 42.08935614 23.45641233 42.075395 20.4375 42.0625 C10.3209375 42.0315625 10.3209375 42.0315625 0 42 C0 28.14 0 14.28 0 0 Z " fill="#2F2625" transform="translate(223,55)"/>
<path d="M0 0 C6.93 0 13.86 0 21 0 C21 54.45 21 108.9 21 165 C14.07 165 7.14 165 0 165 C0 171.6 0 178.2 0 185 C-6.93 185 -13.86 185 -21 185 C-21 178.07 -21 171.14 -21 164 C-18.1125 163.835 -15.225 163.67 -12.25 163.5 C-11.38793945 163.44779297 -10.52587891 163.39558594 -9.63769531 163.34179688 C-0.06294885 162.83168353 9.35813811 163 19 163 C19 109.54 19 56.08 19 1 C12.73 1 6.46 1 0 1 C0 0.67 0 0.34 0 0 Z " fill="#BBC6A8" transform="translate(285,55)"/>
<path d="M0 0 C6.6 0 13.2 0 20 0 C20 0.33 20 0.66 20 1 C13.73 1 7.46 1 1 1 C1 54.79 1 108.58 1 164 C7.6 164 14.2 164 21 164 C24.76340373 164.13009297 28.49588903 164.27264823 32.25 164.5 C35.1375 164.665 38.025 164.83 41 165 C41 171.6 41 178.2 41 185 C34.07 185 27.14 185 20 185 C20 178.4 20 171.8 20 165 C13.4 165 6.8 165 0 165 C0 110.55 0 56.1 0 0 Z " fill="#A7A591" transform="translate(59,55)"/>
<path d="M0 0 C13.86 0 27.72 0 42 0 C42.020625 6.744375 42.04125 13.48875 42.0625 20.4375 C42.071604 22.56888428 42.08070801 24.70026855 42.09008789 26.89624023 C42.093007 28.57535743 42.09555557 30.25447533 42.09765625 31.93359375 C42.10277222 32.81374146 42.10788818 33.69388916 42.11315918 34.60070801 C42.11346896 36.73413879 42.06244067 38.86748314 42 41 C41 42 41 42 37.12280273 42.11352539 C35.39305834 42.11327423 33.66330895 42.10771043 31.93359375 42.09765625 C31.1286145 42.09664917 30.32363525 42.09564209 29.4942627 42.09460449 C26.47532739 42.08935614 23.45641233 42.075395 20.4375 42.0625 C10.3209375 42.0315625 10.3209375 42.0315625 0 42 C0 28.14 0 14.28 0 0 Z M1 1 C1 7.6 1 14.2 1 21 C7.6 21 14.2 21 21 21 C21 27.27 21 33.54 21 40 C27.27 40 33.54 40 40 40 C40 27.13 40 14.26 40 1 C27.13 1 14.26 1 1 1 Z " fill="#605653" transform="translate(100,178)"/>
<path d="M0 0 C13.86 0 27.72 0 42 0 C42.020625 6.744375 42.04125 13.48875 42.0625 20.4375 C42.071604 22.56888428 42.08070801 24.70026855 42.09008789 26.89624023 C42.093007 28.57535743 42.09555557 30.25447533 42.09765625 31.93359375 C42.10277222 32.81374146 42.10788818 33.69388916 42.11315918 34.60070801 C42.11346896 36.73413879 42.06244067 38.86748314 42 41 C41 42 41 42 37.12280273 42.11352539 C35.39305834 42.11327423 33.66330895 42.10771043 31.93359375 42.09765625 C31.1286145 42.09664917 30.32363525 42.09564209 29.4942627 42.09460449 C26.47532739 42.08935614 23.45641233 42.075395 20.4375 42.0625 C10.3209375 42.0315625 10.3209375 42.0315625 0 42 C0 28.14 0 14.28 0 0 Z M1 1 C1 7.6 1 14.2 1 21 C7.6 21 14.2 21 21 21 C21 27.6 21 34.2 21 41 C27.6 41 34.2 41 41 41 C41 27.8 41 14.6 41 1 C27.8 1 14.6 1 1 1 Z " fill="#655C5A" transform="translate(223,55)"/>
<path d="M0 0 C6.6 0 13.2 0 20 0 C20 6.6 20 13.2 20 20 C13.07 20 6.14 20 -1 20 C-0.67 13.4 -0.34 6.8 0 0 Z " fill="#B6B2A3" transform="translate(265,220)"/>
<path d="M0 0 C6.6 0 13.2 0 20 0 C20 6.27 20 12.54 20 19 C13.4 19 6.8 19 0 19 C0 12.73 0 6.46 0 0 Z " fill="#FEFDFB" transform="translate(264,36)"/>
<path d="M0 0 C6.6 0 13.2 0 20 0 C20 6.27 20 12.54 20 19 C13.4 19 6.8 19 0 19 C0 12.73 0 6.46 0 0 Z " fill="#FCFCFA" transform="translate(80,36)"/>
<path d="M0 0 C39.27 0 78.54 0 119 0 C119 0.33 119 0.66 119 1 C118.42370378 1.00423194 117.84740755 1.00846388 117.2536478 1.01282406 C103.25000216 1.11599729 89.24640867 1.22467796 75.24285221 1.33933926 C68.47091991 1.39468631 61.69898235 1.44817068 54.92700195 1.49731445 C48.39771567 1.54470218 41.8684826 1.5972219 35.33926201 1.65294075 C32.84207951 1.67339885 30.34488207 1.69210606 27.84767342 1.70907402 C24.3633188 1.73304181 20.8790682 1.76310643 17.39477539 1.79467773 C16.35108795 1.8004332 15.30740051 1.80618866 14.23208618 1.81211853 C13.28832626 1.82190735 12.34456635 1.83169617 11.37220764 1.84178162 C10.13470056 1.85146044 10.13470056 1.85146044 8.87219334 1.8613348 C6.98618605 1.79616529 6.98618605 1.79616529 6 3 C4.00041636 3.04080783 1.99954746 3.04254356 0 3 C0 2.01 0 1.02 0 0 Z " fill="#3F541F" transform="translate(105,261)"/>
<path d="M0 0 C1.65 0 3.3 0 5 0 C4.01 1.485 4.01 1.485 3 3 C2.85778935 5.60245498 2.81197068 8.09117684 2.875 10.6875 C2.88402344 11.38939453 2.89304687 12.09128906 2.90234375 12.81445312 C2.92586296 14.54311525 2.96173287 16.27160145 3 18 C2.01 18.33 1.02 18.66 0 19 C0 12.73 0 6.46 0 0 Z " fill="#F8FDE9" transform="translate(80,36)"/>
<path d="M0 0 C2.31 0 4.62 0 7 0 C6.67 0.99 6.34 1.98 6 3 C4.02 3 2.04 3 0 3 C0 2.01 0 1.02 0 0 Z " fill="#3A511A" transform="translate(105,261)"/>
</svg>
