<?xml version="1.0" encoding="UTF-8"?>
<svg version="1.1" xmlns="http://www.w3.org/2000/svg" width="328" height="294">
<path d="M0 0 C108.24 0 216.48 0 328 0 C328 97.02 328 194.04 328 294 C219.76 294 111.52 294 0 294 C0 196.98 0 99.96 0 0 Z " fill="#E6DEDD" transform="translate(0,0)"/>
<path d="M0 0 C108.24 0 216.48 0 328 0 C328 97.02 328 194.04 328 294 C219.76 294 111.52 294 0 294 C0 196.98 0 99.96 0 0 Z M82 15 C82 21.6 82 28.2 82 35 C75.4 35 68.8 35 62 35 C62 42.26 62 49.52 62 57 C55.4 57 48.8 57 42 57 C42 111.12 42 165.24 42 221 C48.6 221 55.2 221 62 221 C62 227.6 62 234.2 62 241 C68.93 241 75.86 241 83 241 C83 247.93 83 254.86 83 262 C137.45 262 191.9 262 248 262 C248 255.4 248 248.8 248 242 C254.6 242 261.2 242 268 242 C268 235.07 268 228.14 268 221 C274.6 221 281.2 221 288 221 C288 166.55 288 112.1 288 56 C281.4 56 274.8 56 268 56 C268 49.07 268 42.14 268 35 C261.4 35 254.8 35 248 35 C248 28.4 248 21.8 248 15 C193.22 15 138.44 15 82 15 Z " fill="#426019" transform="translate(0,0)"/>
<path d="M0 0 C6.744375 -0.020625 13.48875 -0.04125 20.4375 -0.0625 C22.56888428 -0.071604 24.70026855 -0.08070801 26.89624023 -0.09008789 C28.57535743 -0.093007 30.25447533 -0.09555557 31.93359375 -0.09765625 C32.81374146 -0.10277222 33.69388916 -0.10788818 34.60070801 -0.11315918 C36.73413879 -0.11346896 38.86748314 -0.06244067 41 0 C42 1 42 1 42.11352539 4.87719727 C42.11336621 6.60694167 42.10766849 8.33669081 42.09765625 10.06640625 C42.09553383 11.42934059 42.09553383 11.42934059 42.09336853 12.81980896 C42.08775193 15.73407221 42.07519665 18.64825981 42.0625 21.5625 C42.05748714 23.53320202 42.05292386 25.50390524 42.04882812 27.47460938 C42.03862617 32.31645914 42.01905409 37.15814447 42 42 C48.6 42 55.2 42 62 42 C62 48.93 62 55.86 62 63 C55.4 63 48.8 63 42 63 C42 69.6 42 76.2 42 83 C-12.45 83 -66.9 83 -123 83 C-123 76.07 -123 69.14 -123 62 C-68.88 62 -14.76 62 41 62 C41 55.4 41 48.8 41 42 C27.47 42 13.94 42 0 42 C0 28.14 0 14.28 0 0 Z " fill="#BBB4A9" transform="translate(206,179)"/>
<path d="M0 0 C54.78 0 109.56 0 166 0 C166 6.6 166 13.2 166 20 C172.6 20 179.2 20 186 20 C186 26.93 186 33.86 186 41 C192.6 41 199.2 41 206 41 C206 41.33 206 41.66 206 42 C199.07 42 192.14 42 185 42 C185 35.07 185 28.14 185 21 C178.4 21 171.8 21 165 21 C165 14.4 165 7.8 165 1 C110.88 1 56.76 1 1 1 C1 7.6 1 14.2 1 21 C0 22 0 22 -1.85766602 22.11352539 C-3.04380493 22.10567017 -3.04380493 22.10567017 -4.25390625 22.09765625 C-5.10791016 22.09443359 -5.96191406 22.09121094 -6.84179688 22.08789062 C-7.73962891 22.07951172 -8.63746094 22.07113281 -9.5625 22.0625 C-10.46419922 22.05798828 -11.36589844 22.05347656 -12.29492188 22.04882812 C-14.53001314 22.03700225 -16.76497437 22.0205222 -19 22 C-18.99888969 22.60567936 -18.99777939 23.21135872 -18.99663544 23.835392 C-18.92842385 63.07601295 -19.09723862 102.31001077 -19.44538212 141.54897928 C-19.50793769 148.61175573 -19.56741277 155.67455739 -19.62675762 162.73736143 C-19.74799105 177.15826895 -19.87279264 191.57914395 -20 206 C-26.6 206 -33.2 206 -40 206 C-40 151.88 -40 97.76 -40 42 C-33.4 42 -26.8 42 -20 42 C-20 34.74 -20 27.48 -20 20 C-13.4 20 -6.8 20 0 20 C0 13.4 0 6.8 0 0 Z " fill="#B6B2A3" transform="translate(82,15)"/>
<path d="M0 0 C6.27 0 12.54 0 19 0 C19 53.46 19 106.92 19 162 C12.73 162 6.46 162 0 162 C0 108.54 0 55.08 0 0 Z " fill="#FEFEFD" transform="translate(268,57)"/>
<path d="M0 0 C53.46 0 106.92 0 162 0 C162 6.27 162 12.54 162 19 C108.54 19 55.08 19 0 19 C0 12.73 0 6.46 0 0 Z " fill="#FEFEFB" transform="translate(84,17)"/>
<path d="M0 0 C13.53 0 27.06 0 41 0 C41 13.86 41 27.72 41 42 C27.47 42 13.94 42 0 42 C0 28.14 0 14.28 0 0 Z " fill="#312826" transform="translate(206,179)"/>
<path d="M0 0 C13.53 0 27.06 0 41 0 C41 13.53 41 27.06 41 41 C27.47 41 13.94 41 0 41 C0 27.47 0 13.94 0 0 Z " fill="#312927" transform="translate(83,180)"/>
<path d="M0 0 C13.53 0 27.06 0 41 0 C41 13.2 41 26.4 41 40 C27.47 40 13.94 40 0 40 C0 26.8 0 13.6 0 0 Z " fill="#302726" transform="translate(206,57)"/>
<path d="M0 0 C13.53 0 27.06 0 41 0 C41 13.2 41 26.4 41 40 C27.47 40 13.94 40 0 40 C0 26.8 0 13.6 0 0 Z " fill="#2F2725" transform="translate(83,57)"/>
<path d="M0 0 C0.33 0 0.66 0 1 0 C1 13.53 1 27.06 1 41 C7.6 41 14.2 41 21 41 C21 47.93 21 54.86 21 62 C14.4 62 7.8 62 1 62 C1 68.6 1 75.2 1 82 C-53.45 82 -107.9 82 -164 82 C-164 75.07 -164 68.14 -164 61 C-163.67 61 -163.34 61 -163 61 C-163 67.6 -163 74.2 -163 81 C-109.54 81 -56.08 81 -1 81 C-1 74.73 -1 68.46 -1 62 C-0.93988052 56.85994418 -0.87060589 51.72149673 -0.78125 46.58203125 C-0.75869318 45.21913372 -0.73627615 43.85623388 -0.71398926 42.49333191 C-0.65618246 38.98037342 -0.59653366 35.46744879 -0.53643799 31.95452881 C-0.47495386 28.34014788 -0.41529898 24.72573674 -0.35546875 21.11132812 C-0.23872228 14.07418898 -0.12002074 7.03708413 0 0 Z " fill="#A8A692" transform="translate(247,180)"/>
<path d="M0 0 C13.53 0 27.06 0 41 0 C41 0.33 41 0.66 41 1 C27.8 1 14.6 1 1 1 C1 7.6 1 14.2 1 21 C7.6 21 14.2 21 21 21 C21 27.6 21 34.2 21 41 C27.6 41 34.2 41 41 41 C41 41.33 41 41.66 41 42 C27.47 42 13.94 42 0 42 C0 28.14 0 14.28 0 0 Z " fill="#5E5351" transform="translate(206,179)"/>
<path d="M0 0 C0.33 0 0.66 0 1 0 C1 6.6 1 13.2 1 20 C7.6 20 14.2 20 21 20 C21 26.6 21 33.2 21 40 C27.6 40 34.2 40 41 40 C41 40.33 41 40.66 41 41 C27.47 41 13.94 41 0 41 C0 27.47 0 13.94 0 0 Z " fill="#574D4A" transform="translate(83,180)"/>
<path d="M0 0 C0.33 0 0.66 0 1 0 C1 20.13 1 40.26 1 61 C-5.93 61 -12.86 61 -20 61 C-20 54.4 -20 47.8 -20 41 C-13.4 41 -6.8 41 0 41 C0 27.47 0 13.94 0 0 Z " fill="#B8B1A7" transform="translate(82,180)"/>
<path d="M0 0 C0.33 0 0.66 0 1 0 C1 6.6 1 13.2 1 20 C7.6 20 14.2 20 21 20 C21 26.6 21 33.2 21 40 C14.07 40 7.14 40 0 40 C0 26.8 0 13.6 0 0 Z " fill="#554B48" transform="translate(206,57)"/>
<path d="M0 0 C0.33 0 0.66 0 1 0 C1 6.6 1 13.2 1 20 C7.6 20 14.2 20 21 20 C21 26.6 21 33.2 21 40 C14.07 40 7.14 40 0 40 C0 26.8 0 13.6 0 0 Z " fill="#554B48" transform="translate(83,57)"/>
<path d="M0 0 C6.6 0 13.2 0 20 0 C20 6.6 20 13.2 20 20 C15.606875 20.0309375 15.606875 20.0309375 11.125 20.0625 C9.74272217 20.07615601 9.74272217 20.07615601 8.33251953 20.09008789 C7.24366455 20.09383423 7.24366455 20.09383423 6.1328125 20.09765625 C5.01737061 20.10551147 5.01737061 20.10551147 3.87939453 20.11352539 C2 20 2 20 0 19 C0 12.73 0 6.46 0 0 Z " fill="#FCFDFA" transform="translate(247,37)"/>
<path d="M0 0 C6.27 0 12.54 0 19 0 C19 6.27 19 12.54 19 19 C15.23508833 20.25497056 11.72793525 20.10661648 7.8125 20.0625 C5.234375 20.041875 2.65625 20.02125 0 20 C0 13.4 0 6.8 0 0 Z " fill="#FBFBF8" transform="translate(64,37)"/>
</svg>
