<?xml version="1.0" encoding="UTF-8"?>
<svg version="1.1" xmlns="http://www.w3.org/2000/svg" width="326" height="300">
<path d="M0 0 C107.58 0 215.16 0 326 0 C326 99 326 198 326 300 C218.42 300 110.84 300 0 300 C0 201 0 102 0 0 Z " fill="#E7DFDD" transform="translate(0,0)"/>
<path d="M0 0 C107.58 0 215.16 0 326 0 C326 99 326 198 326 300 C218.42 300 110.84 300 0 300 C0 201 0 102 0 0 Z M89 20 C89 26.6 89 33.2 89 40 C82.4 40 75.8 40 69 40 C69 46.93 69 53.86 69 61 C62.4 61 55.8 61 49 61 C49 115.45 49 169.9 49 226 C55.6 226 62.2 226 69 226 C69 232.6 69 239.2 69 246 C75.93 246 82.86 246 90 246 C90 252.6 90 259.2 90 266 C144.12 266 198.24 266 254 266 C254 259.4 254 252.8 254 246 C260.93 246 267.86 246 275 246 C275 239.4 275 232.8 275 226 C281.93 226 288.86 226 296 226 C296 171.55 296 117.1 296 61 C289.07 61 282.14 61 275 61 C275 54.4 275 47.8 275 41 C268.07 41 261.14 41 254 41 C254 34.07 254 27.14 254 20 C199.55 20 145.1 20 89 20 Z " fill="#43601A" transform="translate(0,0)"/>
<path d="M0 0 C54.45 0 108.9 0 165 0 C165 0.33 165 0.66 165 1 C111.21 1 57.42 1 2 1 C2 7.93 2 14.86 2 22 C-4.6 22 -11.2 22 -18 22 C-18 82.06 -18 142.12 -18 204 C-12.39 204 -6.78 204 -1 204 C-0.505 184.2 -0.505 184.2 0 164 C13.86 164 27.72 164 42 164 C42 177.86 42 191.72 42 206 C28.47 206 14.94 206 1 206 C1 212.6 1 219.2 1 226 C-5.93 226 -12.86 226 -20 226 C-20 219.4 -20 212.8 -20 206 C-26.6 206 -33.2 206 -40 206 C-40 151.55 -40 97.1 -40 41 C-33.4 41 -26.8 41 -20 41 C-20 34.07 -20 27.14 -20 20 C-13.4 20 -6.8 20 0 20 C0 13.4 0 6.8 0 0 Z " fill="#BBB3A8" transform="translate(89,20)"/>
<path d="M0 0 C54.12 0 108.24 0 164 0 C164 6.6 164 13.2 164 20 C109.88 20 55.76 20 0 20 C0 13.4 0 6.8 0 0 Z " fill="#BAB3A9" transform="translate(90,246)"/>
<path d="M0 0 C53.46 0 106.92 0 162 0 C162 6.6 162 13.2 162 20 C108.54 20 55.08 20 0 20 C0 13.4 0 6.8 0 0 Z " fill="#FDFDFB" transform="translate(91,21)"/>
<path d="M0 0 C6.27 0 12.54 0 19 0 C19 53.46 19 106.92 19 162 C12.73 162 6.46 162 0 162 C0 108.54 0 55.08 0 0 Z " fill="#FEFCFC" transform="translate(275,62)"/>
<path d="M0 0 C13.86 0 27.72 0 42 0 C42 13.86 42 27.72 42 42 C28.14 42 14.28 42 0 42 C0 28.14 0 14.28 0 0 Z " fill="#302725" transform="translate(151,122)"/>
<path d="M0 0 C13.53 0 27.06 0 41 0 C41 13.53 41 27.06 41 41 C27.47 41 13.94 41 0 41 C0 27.47 0 13.94 0 0 Z " fill="#302726" transform="translate(90,184)"/>
<path d="M0 0 C13.53 0 27.06 0 41 0 C41 13.53 41 27.06 41 41 C27.47 41 13.94 41 0 41 C0 27.47 0 13.94 0 0 Z " fill="#2F2625" transform="translate(213,61)"/>
<path d="M0 0 C6.6 0 13.2 0 20 0 C20 0.33 20 0.66 20 1 C13.73 1 7.46 1 1 1 C1 54.46 1 107.92 1 163 C7.27 163 13.54 163 20 163 C29.9 163.495 29.9 163.495 40 164 C40 150.47 40 136.94 40 123 C40.33 123 40.66 123 41 123 C41 136.53 41 150.06 41 164 C54.53 164 68.06 164 82 164 C82 164.33 82 164.66 82 165 C68.47 165 54.94 165 41 165 C41 171.6 41 178.2 41 185 C34.07 185 27.14 185 20 185 C20 178.4 20 171.8 20 165 C13.4 165 6.8 165 0 165 C0 110.55 0 56.1 0 0 Z " fill="#AEAB9A" transform="translate(49,61)"/>
<path d="M0 0 C54.45 0 108.9 0 165 0 C165 0.33 165 0.66 165 1 C111.21 1 57.42 1 2 1 C2 7.93 2 14.86 2 22 C-4.6 22 -11.2 22 -18 22 C-18 82.06 -18 142.12 -18 204 C-12.39 204 -6.78 204 -1 204 C-1 204.33 -1 204.66 -1 205 C-7.27 205 -13.54 205 -20 205 C-20 143.95 -20 82.9 -20 20 C-13.4 20 -6.8 20 0 20 C0 13.4 0 6.8 0 0 Z " fill="#CED0B9" transform="translate(89,20)"/>
<path d="M0 0 C13.86 0 27.72 0 42 0 C42 13.86 42 27.72 42 42 C28.14 42 14.28 42 0 42 C0 28.14 0 14.28 0 0 Z M2 2 C2 8.27 2 14.54 2 21 C8.27 21 14.54 21 21 21 C21 27.6 21 34.2 21 41 C27.6 41 34.2 41 41 41 C41 28.13 41 15.26 41 2 C28.13 2 15.26 2 2 2 Z " fill="#605654" transform="translate(151,122)"/>
<path d="M0 0 C0.33 0 0.66 0 1 0 C1 54.45 1 108.9 1 165 C-5.93 165 -12.86 165 -20 165 C-20 171.6 -20 178.2 -20 185 C-26.93 185 -33.86 185 -41 185 C-41 178.4 -41 171.8 -41 165 C-36.6996875 164.7525 -36.6996875 164.7525 -32.3125 164.5 C-31.45954346 164.44779297 -30.60658691 164.39558594 -29.7277832 164.34179688 C-19.79252393 163.81073625 -10.00199585 164 0 164 C0 109.88 0 55.76 0 0 Z " fill="#A8AB90" transform="translate(295,61)"/>
<path d="M0 0 C13.53 0 27.06 0 41 0 C41 13.53 41 27.06 41 41 C27.47 41 13.94 41 0 41 C0 27.47 0 13.94 0 0 Z M1 1 C1 7.6 1 14.2 1 21 C7.27 21 13.54 21 20 21 C20 27.27 20 33.54 20 40 C26.6 40 33.2 40 40 40 C40 27.13 40 14.26 40 1 C27.13 1 14.26 1 1 1 Z " fill="#574E4B" transform="translate(213,61)"/>
<path d="M0 0 C13.53 0 27.06 0 41 0 C41 0.33 41 0.66 41 1 C27.8 1 14.6 1 1 1 C1.33 7.6 1.66 14.2 2 21 C7.94 21 13.88 21 20 21 C20.33 27.6 20.66 34.2 21 41 C14.07 41 7.14 41 0 41 C0 27.47 0 13.94 0 0 Z " fill="#594F4C" transform="translate(90,184)"/>
<path d="M0 0 C6.27 0 12.54 0 19 0 C19 6.27 19 12.54 19 19 C12.73 19 6.46 19 0 19 C0 12.73 0 6.46 0 0 Z " fill="#FDFDFC" transform="translate(254,42)"/>
<path d="M0 0 C5.94 0 11.88 0 18 0 C18 6.27 18 12.54 18 19 C12.06 19 6.12 19 0 19 C0 12.73 0 6.46 0 0 Z " fill="#FDFEFC" transform="translate(71,42)"/>
<path d="M0 0 C53.46 0 106.92 0 162 0 C162 0.33 162 0.66 162 1 C160.81921875 1.06058594 159.6384375 1.12117188 158.421875 1.18359375 C156.8645723 1.26802582 155.30728121 1.35267249 153.75 1.4375 C152.97269531 1.47681641 152.19539062 1.51613281 151.39453125 1.55664062 C150.26337891 1.61948242 150.26337891 1.61948242 149.109375 1.68359375 C148.07248535 1.73858032 148.07248535 1.73858032 147.01464844 1.79467773 C144.93371671 2.00675524 143.01427578 2.44508677 141 3 C141 2.34 141 1.68 141 1 C139.6696875 1.4640625 139.6696875 1.4640625 138.3125 1.9375 C132.88 3.68 132.88 3.68 130 4 C129.01 3.01 129.01 3.01 128 2 C125.67576799 1.68546314 125.67576799 1.68546314 122.93807983 1.7215271 C121.86673294 1.71036362 120.79538605 1.69920013 119.6915741 1.68769836 C117.92104424 1.68445808 117.92104424 1.68445808 116.11474609 1.68115234 C114.87575058 1.67110672 113.63675507 1.6610611 112.36021423 1.65071106 C108.95751199 1.62506575 105.5549775 1.6082432 102.15221739 1.59528303 C98.59806252 1.57967998 95.04399285 1.55288083 91.48989868 1.5272522 C84.75742187 1.48041419 78.02492912 1.44369448 71.29237235 1.41057932 C63.62857404 1.37239332 55.96486117 1.322974 48.30113482 1.27259517 C32.5341516 1.16920067 16.76712051 1.07996483 1 1 C0.67 1.66 0.34 2.32 0 3 C0 2.01 0 1.02 0 0 Z " fill="#F5FBE9" transform="translate(91,21)"/>
<path d="M0 0 C29.04 0 58.08 0 88 0 C88 0.99 88 1.98 88 3 C86.76895035 2.75885216 86.76895035 2.75885216 85.51303101 2.51283264 C81.59085623 1.94027315 77.74545362 1.82521604 73.79150391 1.79467773 C72.99083496 1.78477814 72.19016602 1.77487854 71.36523438 1.76467896 C68.7357065 1.73325391 66.1061606 1.70838216 63.4765625 1.68359375 C61.64667305 1.66300779 59.81678818 1.6420109 57.98690796 1.62062073 C53.18328574 1.56556958 48.37962182 1.51608588 43.57592773 1.46777344 C38.66907056 1.41743421 33.76227354 1.36181313 28.85546875 1.30664062 C19.23703063 1.19926661 9.61854015 1.09777599 0 1 C0 0.67 0 0.34 0 0 Z " fill="#3F541C" transform="translate(91,267)"/>
</svg>
