<svg width="256" height="256" viewBox="0 0 32 32" xmlns="http://www.w3.org/2000/svg" shape-rendering="crispEdges">
  <rect width="32" height="32" fill="#222222"/>

  <rect x="22" y="12" width="4" height="4" fill="#555555"/>
  <rect x="18" y="24" width="4" height="4" fill="#555555"/>
  <rect x="26" y="24" width="4" height="4" fill="#555555"/>
  <path fill="#555555" d="M18 6h2v2h2v2h2v2h-2v-2h-2v-2h-2v-2z M24 16h2v2h-2v2h2v2h2v2h-2v-2h-2v-2h2v-2h-2v-2z M24 16h-2v2h2v2h-2v2h-2v2h2v-2h2v-2h-2v-2h2v-2z"/>


  <rect x="14" y="2" width="4" height="4" fill="#00e5ff"/>
  
  <rect x="6" y="12" width="4" height="4" fill="#00e5ff"/>
  <rect x="2" y="24" width="4" height="4" fill="#00e5ff"/>
  <rect x="10" y="24" width="4" height="4" fill="#00e5ff"/>
  
  <path fill="#00e5ff" d="M14 6h-2v2h-2v2h-2v2h2v-2h2v-2h2v-2z"/>
  <path fill="#00e5ff" d="M8 16h-2v2h-2v2h-2v2h2v-2h2v-2h2v-2z M8 16h2v2h2v2h2v2h-2v-2h-2v-2h-2v-2z"/>
</svg>