<svg width="64px" height="64px" viewBox="0 0 64 64" xmlns="http://www.w3.org/2000/svg"><path x="10" y="10" width="4" height="4" fill="#7A5C38" d="M26.667 26.667H37.333V37.333H26.667V26.667z"/><path x="6" y="6" width="4" height="4" fill="#A07A4A" d="M16 16H26.667V26.667H16V16z"/><path x="14" y="6" width="4" height="4" fill="#A07A4A" d="M37.333 16H48V26.667H37.333V16z"/><path x="6" y="14" width="4" height="4" fill="#A07A4A" d="M16 37.333H26.667V48H16V37.333z"/><path x="14" y="14" width="4" height="4" fill="#A07A4A" d="M37.333 37.333H48V48H37.333V37.333z"/><path x="2" y="2" width="4" height="4" fill="#C29A6B" d="M5.333 5.333H16V16H5.333V5.333z"/><path x="18" y="2" width="4" height="4" fill="#C29A6B" d="M48 5.333H58.667V16H48V5.333z"/><path x="2" y="18" width="4" height="4" fill="#C29A6B" d="M5.333 48H16V58.667H5.333V48z"/><path x="18" y="18" width="4" height="4" fill="#C29A6B" d="M48 48H58.667V58.667H48V48z"/></svg>