<svg width="64px" height="64px" viewBox="0 0 64 64" xmlns="http://www.w3.org/2000/svg"><path x="6" y="6" width="4" height="4" fill="#C29A6B" d="M16 16H26.667V26.667H16V16z"/><path x="10" y="6" width="4" height="4" fill="#C29A6B" d="M26.667 16H37.333V26.667H26.667V16z"/><path x="14" y="6" width="4" height="4" fill="#C29A6B" d="M37.333 16H48V26.667H37.333V16z"/><path x="6" y="10" width="4" height="4" fill="#C29A6B" d="M16 26.667H26.667V37.333H16V26.667z"/><path x="14" y="10" width="4" height="4" fill="#C29A6B" d="M37.333 26.667H48V37.333H37.333V26.667z"/><path x="6" y="14" width="4" height="4" fill="#C29A6B" d="M16 37.333H26.667V48H16V37.333z"/><path x="10" y="14" width="4" height="4" fill="#C29A6B" d="M26.667 37.333H37.333V48H26.667V37.333z"/><path x="14" y="14" width="4" height="4" fill="#C29A6B" d="M37.333 37.333H48V48H37.333V37.333z"/><path x="10" y="10" width="4" height="4" fill="#7A5C38" d="M26.667 26.667H37.333V37.333H26.667V26.667z"/></svg>