<svg width="64px" height="64px" viewBox="0 0 64 64" xmlns="http://www.w3.org/2000/svg"><path x="8" y="20" width="8" height="4" fill="#7A5C38" d="M21.333 53.333H42.667V64H21.333V53.333z"/><path x="6" y="14" width="12" height="4" fill="#A07A4A" d="M16 37.333H48V48H16V37.333z"/><path x="10" y="10" width="4" height="4" fill="#A07A4A" d="M26.667 26.667H37.333V37.333H26.667V26.667z"/><path x="10" y="4" width="4" height="4" fill="#C29A6B" d="M26.667 10.667H37.333V21.333H26.667V10.667z"/><path x="10" y="0" width="4" height="4" fill="#C29A6B" d="M26.667 0H37.333V10.667H26.667V0z"/><path x="10" y="8" width="4" height="2" fill="#C29A6B" d="M26.667 21.333H37.333V26.667H26.667V21.333z"/></svg>