<svg width="64px" height="64px" viewBox="0 0 64 64" xmlns="http://www.w3.org/2000/svg"><path x="4" y="16" width="4" height="4" fill="#7A5C38" d="M10.667 42.667H21.333V53.333H10.667V42.667z"/><path x="16" y="16" width="4" height="4" fill="#7A5C38" d="M42.667 42.667H53.333V53.333H42.667V42.667z"/><path x="8" y="12" width="8" height="4" fill="#A07A4A" d="M21.333 32H42.667V42.667H21.333V32z"/><path x="10" y="8" width="4" height="4" fill="#C29A6B" d="M26.667 21.333H37.333V32H26.667V21.333z"/><path x="6" y="8" width="4" height="4" fill="#C29A6B" d="M16 21.333H26.667V32H16V21.333z"/><path x="14" y="8" width="4" height="4" fill="#C29A6B" d="M37.333 21.333H48V32H37.333V21.333z"/></svg>