<svg width="64px" height="64px" viewBox="0 0 64 64" xmlns="http://www.w3.org/2000/svg"><path x="6" y="4" width="12" height="16" rx="1" fill="#A07A4A" d="M18.667 10.667H45.333A2.667 2.667 0 0 1 48 13.333V50.667A2.667 2.667 0 0 1 45.333 53.333H18.667A2.667 2.667 0 0 1 16 50.667V13.333A2.667 2.667 0 0 1 18.667 10.667z"/><path x="4" y="20" width="16" height="2" fill="#A07A4A" d="M10.667 53.333H53.333V58.667H10.667V53.333z"/><path points="6,8 12,13 18,8" fill="#FFFFFF" d="M16 21.333L32 34.667L48 21.333Z"/></svg>